<svg height="59" width="228" xmlns="http://www.w3.org/2000/svg" xmlns:xlink="http://www.w3.org/1999/xlink"><defs><linearGradient id="b" x1="50%" x2="50%" y1="95.423%" y2="0%"><stop offset="0" stop-color="#3967ff"/><stop offset="1" stop-color="#b500fe"/></linearGradient><linearGradient id="f" x1="50%" x2="50%" y1="0%" y2="100%"><stop offset="0" stop-color="#3967ff"/><stop offset="1" stop-color="#b500fe"/></linearGradient><linearGradient id="g" x1="50%" x2="50%" y1="0%" y2="100%"><stop offset="0" stop-color="#1c98ff"/><stop offset="1" stop-color="#574ae4"/></linearGradient><linearGradient id="h" x1="100%" x2="26.765%" y1="15.127%" y2="100%"><stop offset="0" stop-color="#ef478f"/><stop offset="1" stop-color="#ae48c0"/></linearGradient><linearGradient id="j" x1="100%" x2="26.765%" y1="15.127%" y2="100%"><stop offset="0" stop-color="#ff4695"/><stop offset="1" stop-color="#cc34e7"/></linearGradient><path id="a" d="M19.907 0c10.995 0 19.908 8.913 19.908 19.907 0 10.995-8.913 19.908-19.908 19.908C8.913 39.815 0 30.902 0 19.907 0 8.913 8.913 0 19.907 0zm0 7.13C12.85 7.13 7.13 12.85 7.13 19.907s5.72 12.778 12.777 12.778 12.778-5.72 12.778-12.778S26.965 7.13 19.907 7.13z"/><path id="e" d="M19.924 12.406L31.7 35.958a19.818 19.818 0 01-11.776 3.855 19.818 19.818 0 01-11.776-3.855z"/><filter id="d" height="364.2%" width="344.3%" x="-122.1%" y="-143%"><feMorphology in="SourceAlpha" operator="dilate" radius=".5" result="shadowSpreadOuter1"/><feOffset in="shadowSpreadOuter1" result="shadowOffsetOuter1"/><feGaussianBlur in="shadowOffsetOuter1" result="shadowBlurOuter1" stdDeviation="9"/><feColorMatrix in="shadowBlurOuter1" values="0 0 0 0 0.0392156863 0 0 0 0 0.0509803922 0 0 0 0 0.145098039 0 0 0 1 0"/></filter><circle id="i" cx="20" cy="16.296" r="3.519"/><mask id="c" fill="#fff"><use fill-rule="evenodd" xlink:href="#a"/></mask></defs><g fill="none" fill-rule="evenodd"><path d="M219.259 16.272v3.301h-3.302v3.61h3.302v3.302h3.609v-3.302h3.302v-3.61h-3.302v-3.301zM60.723 41.547h4.085V19.824h-4.085zm24.384-8.071c-.412 1.484-1.064 2.615-1.939 3.36-.879.75-1.967 1.114-3.327 1.114-1.977 0-3.456-.627-4.522-1.916-1.063-1.285-1.601-3.154-1.601-5.557 0-2.198.55-3.938 1.634-5.172 1.092-1.243 2.56-1.847 4.49-1.847 1.362 0 2.478.355 3.41 1.083.93.729 1.536 1.748 1.852 3.116l.045.191h4.545l-.036-.278c-.308-2.401-1.347-4.315-3.088-5.688-1.733-1.366-3.996-2.058-6.729-2.058-3.394 0-6.085.992-7.996 2.95-1.91 1.956-2.878 4.726-2.878 8.233 0 3.335.97 5.954 2.884 7.785 1.91 1.828 4.623 2.755 8.066 2.755 1.657 0 3.178-.28 4.521-.832 1.34-.55 2.475-1.362 3.374-2.411a1.43 1.43 0 00.145-.173l.048-.06.032-.034.048-.055a6.34 6.34 0 001.016-1.883c.218-.655.405-1.503.557-2.52l.042-.283h-4.543zm22.634 2.54c-1.041 1.276-2.483 1.896-4.408 1.896-1.926 0-3.375-.614-4.428-1.88-1.05-1.258-1.582-3.051-1.582-5.328 0-2.3.532-4.106 1.582-5.366 1.054-1.265 2.502-1.88 4.428-1.88 1.876 0 3.307.61 4.374 1.862 1.061 1.249 1.6 3.009 1.6 5.233 0 2.352-.527 4.19-1.566 5.463m-4.408-16.192c-3.318 0-5.97.972-7.881 2.891-1.911 1.919-2.88 4.607-2.88 7.99 0 3.357.97 6.026 2.88 7.932 1.91 1.906 4.562 2.872 7.881 2.872 3.32 0 5.965-.966 7.863-2.872 1.898-1.907 2.86-4.576 2.86-7.933 0-3.381-.962-6.07-2.86-7.988-1.899-1.92-4.545-2.892-7.863-2.892m25.236.1c-3.172 0-5.155 1.352-5.86 1.933l-.98.804v-2.64h-4.487v21.55h4.523V28.377c0-1.157.391-2.293 1.074-3.118.888-1.073 2.248-1.64 3.932-1.64 1.717 0 3.03.538 3.902 1.599.672.817 1.042 1.938 1.042 3.16v13.195h4.487v-14.34c0-4.03-3.424-7.309-7.633-7.309m12.465-3.453v3.37h-3.007v3.92h2.902v17.71h4.487v-17.71h3.957v-3.92h-3.86v-2.11c0-1.158.867-1.765 1.725-1.765h2.174v-3.638h-4.351c-1.98 0-4.027 1.55-4.027 4.143m24.673 19.545c-1.041 1.276-2.483 1.896-4.408 1.896-1.926 0-3.375-.614-4.428-1.88-1.05-1.258-1.582-3.051-1.582-5.328 0-2.3.532-4.106 1.582-5.366 1.054-1.265 2.502-1.88 4.428-1.88 1.876 0 3.307.61 4.374 1.862 1.061 1.249 1.6 3.009 1.6 5.233 0 2.352-.527 4.19-1.566 5.463M161.3 19.824c-3.318 0-5.97.972-7.881 2.891-1.911 1.919-2.88 4.607-2.88 7.99 0 3.357.969 6.026 2.88 7.932 1.91 1.906 4.562 2.872 7.881 2.872 3.32 0 5.965-.966 7.863-2.872 1.899-1.907 2.861-4.576 2.861-7.933 0-3.381-.962-6.07-2.86-7.988-1.9-1.92-4.545-2.892-7.864-2.892m42.596-4.428h-4.45v4.465H196v3.9h3.445v13.693c0 1.931 1.567 4.016 4.098 4.016l3.803-.001v-3.48h-1.766c-.961 0-1.685-.722-1.685-1.678V23.76h3.451v-3.9h-3.451zm-17.973 4.528c-3.172 0-5.155 1.352-5.86 1.933l-.98.804v-2.64h-4.487v21.55h4.523V28.377c0-1.157.392-2.293 1.074-3.118.888-1.073 2.248-1.64 3.933-1.64 1.716 0 3.029.538 3.902 1.599.671.817 1.041 1.938 1.041 3.16v13.195h4.487v-14.34c0-4.03-3.424-7.309-7.633-7.309" fill="#cfcedc"/><g transform="rotate(-135 26.652 22.755)"><use fill="url(#b)" xlink:href="#a"/><g mask="url(#c)"><use fill="#000" filter="url(#d)" xlink:href="#e"/><use fill="url(#f)" xlink:href="#e"/></g><path d="M20 22.34a5.79 5.79 0 004.054-1.623L31.7 36.009a19.818 19.818 0 01-11.776 3.855 19.818 19.818 0 01-11.776-3.855l7.697-15.393A5.783 5.783 0 0020 22.341z" fill="url(#g)"/><use fill="url(#h)" xlink:href="#i"/><use fill="url(#j)" xlink:href="#i"/></g></g></svg>